<svg height="100vw" width="100vh" xmlns="http://www.w3.org/2000/svg" xmlns:xlink="http://www.w3.org/1999/xlink">
    <defs>
        <clipPath id="cloudPath">
            <path fill="#FFFFFF" stroke="#000000" stroke-width="1.5794" stroke-miterlimit="10" d="M215,100.3c97.8-32.6,90.5-71.9,336-77.6
        c92.4-2.1,98.1,81.6,121.8,116.4c101.7,149.9,53.5,155.9,14.7,178c-96.4,54.9,5.4,269-257,115.1c-57-33.5-203,46.3-263.7,20.1
        c-33.5-14.5-132.5-45.5-95-111.1C125.9,246.6,98.6,139.1,215,100.3z">
            <animate dur="1s" repeatCount="indefinite" attributeName="clipPath"
                   values="
                    M215,100.3c95.8-35.6,90.5-77.9,336-70.6
            c92.4-2.1,98.1,81.6,121.8,116.4c101.7,129.9,53.5,165.9,14.7,178c-96.4,54.9,5.4,269-227,115.1c-57-33.5-203,46.3-263.7,20.1
            c-33.5-14.5-132.5-45.5-95-111.1C125.9,246.6,98.6,139.1,215,100.3z;
                    M215,100.3c97.8-32.6,90.5-71.9,336-77.6
            c92.4-2.1,98.1,81.6,121.8,116.4c101.7,149.9,53.5,155.9,14.7,178c-96.4,54.9,5.4,269-257,115.1c-57-33.5-203,46.3-263.7,20.1
            c-33.5-14.5-132.5-45.5-95-111.1C125.9,246.6,98.6,139.1,215,100.3z
                   ">
            </animate>
            </path>
        </clipPath>
    </defs>
    <g>
        <path fill="#FFFFFF" stroke="#000000" stroke-width="1.5794" stroke-miterlimit="10" d="M215,100.3c97.8-32.6,90.5-71.9,336-77.6
            c92.4-2.1,98.1,81.6,121.8,116.4c101.7,149.9,53.5,155.9,14.7,178c-96.4,54.9,5.4,269-257,115.1c-57-33.5-203,46.3-263.7,20.1
            c-33.5-14.5-132.5-45.5-95-111.1C125.9,246.6,98.6,139.1,215,100.3z">
            <animate dur="1s" repeatCount="indefinite" attributeName="d"
                   values="
                    M215,100.3c95.8-35.6,90.5-77.9,336-70.6
            c92.4-2.1,98.1,81.6,121.8,116.4c101.7,129.9,53.5,165.9,14.7,178c-96.4,54.9,5.4,269-227,115.1c-57-33.5-203,46.3-263.7,20.1
            c-33.5-14.5-132.5-45.5-95-111.1C125.9,246.6,98.6,139.1,215,100.3z;
                    M215,100.3c97.8-32.6,90.5-71.9,336-77.6
            c92.4-2.1,98.1,81.6,121.8,116.4c101.7,149.9,53.5,155.9,14.7,178c-96.4,54.9,5.4,269-257,115.1c-57-33.5-203,46.3-263.7,20.1
            c-33.5-14.5-132.5-45.5-95-111.1C125.9,246.6,98.6,139.1,215,100.3z;
                                M215,100.3c95.8-35.6,90.5-77.9,336-70.6
            c92.4-2.1,98.1,81.6,121.8,116.4c101.7,129.9,53.5,165.9,14.7,178c-96.4,54.9,5.4,269-227,115.1c-57-33.5-203,46.3-263.7,20.1
            c-33.5-14.5-132.5-45.5-95-111.1C125.9,246.6,98.6,139.1,215,100.3z;
                   ">
            </animate>
            </path>
    </g>
</svg>